# xmcd CD database file
# Copyright (C) 1997 Ti Kan
# 
# Track frame offsets:
#     150
#     16660
#     37960
#     56860
#     71430
#     86047
#     103517
#     115235
#     133325
# 
# Disc length: 1975 seconds
# 
# Revision: 1
# Processed by: cddbd v1.4b41PL1 Copyright (c) Steve Scherf et al.
# Submitted via: DiscPlay 4.0.3
# 
DISCID=7507b509
DTITLE=Indigenous - Awake
DYEAR=1900
DGENRE=
TTITLE0=Remember Life
TTITLE1=I Wonder Why
TTITLE2=Awake
TTITLE3=Walk With Me
TTITLE4=Home
TTITLE5=Blues From the Sky
TTITLE6=Something Wrong Here
TTITLE7=Remain the Same
TTITLE8=I've Got the Blues
EXTD=
EXTT0=
EXTT1=
EXTT2=
EXTT3=
EXTT4=
EXTT5=
EXTT6=
EXTT7=
EXTT8=
PLAYORDER=
